M48
; DRILL file {KiCad 5.1.5-52549c5~86~ubuntu18.04.1} date Tue 28 Apr 2020 19:14:59 BST
; FORMAT={-:-/ absolute / inch / decimal}
; #@! TF.CreationDate,2020-04-28T19:14:59+01:00
; #@! TF.GenerationSoftware,Kicad,Pcbnew,5.1.5-52549c5~86~ubuntu18.04.1
FMAT,2
INCH
T1C0.0157
T2C0.0276
T3C0.0315
T4C0.0350
T5C0.0354
T6C0.0394
T7C0.0400
T8C0.0433
T9C0.0551
T10C0.0591
T11C0.0618
T12C0.0709
T13C0.1201
T14C0.1260
T15C0.1402
T16C0.1181
T17C0.1260
T18C0.1280
%
G90
G05
T1
X1.05Y-6.9
X1.05Y-7.7
X1.6Y-6.9
X1.6Y-7.7
X1.65Y-4.675
X1.65Y-4.8199
X1.85Y-6.9
X1.85Y-7.7
X2.8Y-4.775
X2.95Y-4.725
X3.35Y-8.3
X3.6Y-8.35
X3.7Y-8.35
X3.85Y-8.05
X3.85Y-8.25
X3.85Y-8.45
X4.3Y-8.15
X4.35Y-8.15
X4.95Y-6.75
X5.05Y-8.45
X5.15Y-6.75
X5.5Y-8.45
X6.05Y-6.0
X6.1Y-8.45
X6.25Y-8.45
X8.15Y-6.0
T2
X2.25Y-7.95
X5.9Y-8.25
X6.6Y-7.1
X6.9Y-5.6
X10.2Y-7.2
T3
X10.3Y-5.35
X10.3Y-5.65
X0.295Y-7.015
X0.295Y-7.115
X0.295Y-7.215
X0.595Y-7.015
X0.595Y-7.115
X0.595Y-7.215
X8.8Y-6.5
X9.1Y-6.5
X0.9Y-7.62
X0.9Y-7.92
X9.25Y-6.9
X9.35Y-6.9
X9.45Y-6.9
X0.77Y-7.01
X0.77Y-7.31
X8.35Y-5.4
X8.35Y-5.7
X7.0Y-6.15
X7.0Y-6.25
X7.0Y-6.35
X7.0Y-6.45
X7.0Y-6.55
X7.0Y-6.65
X7.0Y-6.75
X7.3Y-6.15
X7.3Y-6.25
X7.3Y-6.35
X7.3Y-6.45
X7.3Y-6.55
X7.3Y-6.65
X7.3Y-6.75
X7.8Y-5.8
X8.1Y-5.8
X0.295Y-7.41
X0.595Y-7.41
X10.25Y-8.5531
X10.25Y-8.75
X0.9Y-5.71
X0.9Y-6.01
X10.45Y-5.45
X10.45Y-5.75
X0.29Y-6.36
X0.29Y-6.46
X0.29Y-6.56
X0.59Y-6.36
X0.59Y-6.46
X0.59Y-6.56
X0.9Y-5.09
X0.9Y-5.39
X10.45Y-4.95
X10.45Y-5.25
X2.525Y-8.35
X2.525Y-8.65
X9.45Y-7.1
X9.75Y-7.1
X0.29Y-6.75
X0.59Y-6.75
X4.85Y-8.25
X4.85Y-8.55
X9.3Y-6.3
X9.4Y-6.3
X9.5Y-6.3
X0.29Y-7.63
X0.29Y-7.73
X0.29Y-7.83
X0.59Y-7.63
X0.59Y-7.73
X0.59Y-7.83
X10.55Y-8.0622
X10.55Y-8.2
X8.05Y-6.4
X8.35Y-6.4
X10.55Y-8.6122
X10.55Y-8.75
X0.76Y-7.62
X0.76Y-7.92
X2.5Y-8.05
X2.6378Y-8.05
X0.91Y-7.01
X0.91Y-7.31
X0.76Y-5.71
X0.76Y-6.01
X2.65Y-8.35
X2.8469Y-8.35
X7.88Y-5.39
X7.88Y-5.49
X7.88Y-5.59
X8.18Y-5.39
X8.18Y-5.49
X8.18Y-5.59
X0.76Y-5.09
X0.76Y-5.39
X0.29Y-6.11
X0.59Y-6.11
X8.05Y-6.25
X8.35Y-6.25
X8.7Y-6.3
X8.8Y-6.3
X8.9Y-6.3
X0.295Y-5.1
X0.295Y-5.2
X0.295Y-5.3
X0.595Y-5.1
X0.595Y-5.2
X0.595Y-5.3
X8.05Y-6.85
X8.35Y-6.85
X7.75Y-6.65
X7.75Y-6.95
X10.25Y-8.0031
X10.25Y-8.2
X10.25Y-7.4031
X10.25Y-7.6
X10.55Y-7.4872
X10.55Y-7.625
X9.9Y-5.8
X9.9Y-6.1
X0.29Y-8.02
X0.59Y-8.02
X0.29Y-5.725
X0.29Y-5.825
X0.29Y-5.925
X0.59Y-5.725
X0.59Y-5.825
X0.59Y-5.925
X0.76Y-6.35
X0.76Y-6.65
X0.9Y-6.35
X0.9Y-6.65
X0.295Y-5.49
X0.595Y-5.49
X6.95Y-6.95
X7.25Y-6.95
X7.55Y-6.65
X7.55Y-6.95
T4
X7.9Y-4.925
X7.95Y-4.825
X8.0Y-4.925
X8.05Y-4.825
X8.1Y-4.925
X8.15Y-4.825
X8.2Y-4.925
X8.25Y-4.825
X5.45Y-4.925
X5.5Y-4.825
X5.55Y-4.925
X5.6Y-4.825
X5.65Y-4.925
X5.7Y-4.825
X5.75Y-4.925
X5.8Y-4.825
X3.8Y-4.925
X3.85Y-4.825
X3.9Y-4.925
X3.95Y-4.825
X4.0Y-4.925
X4.05Y-4.825
X4.1Y-4.925
X4.15Y-4.825
X4.625Y-4.925
X4.675Y-4.825
X4.725Y-4.925
X4.775Y-4.825
X4.825Y-4.925
X4.875Y-4.825
X4.925Y-4.925
X4.975Y-4.825
T5
X-0.095Y-6.485
X-0.095Y-6.585
X0.005Y-6.535
X0.005Y-6.635
X9.7Y-6.95
X9.8Y-6.95
X4.6Y-8.125
X4.7Y-8.125
X-0.095Y-5.845
X-0.095Y-5.945
X0.005Y-5.895
X0.005Y-5.995
X-0.095Y-7.125
X-0.095Y-7.225
X0.005Y-7.175
X0.005Y-7.275
X10.4Y-6.35
X10.5Y-6.35
X-0.095Y-5.215
X-0.095Y-5.315
X0.005Y-5.265
X0.005Y-5.365
X9.05Y-6.3
X9.15Y-6.3
X9.65Y-6.3
X9.75Y-6.3
X-0.095Y-7.755
X-0.095Y-7.855
X0.005Y-7.805
X0.005Y-7.905
X10.4Y-6.05
X10.5Y-6.05
X2.3Y-8.3
X2.4Y-8.3
T6
X0.6913Y-8.55
X0.7459Y-8.6618
X0.8004Y-8.55
X0.8549Y-8.6618
X0.9094Y-8.55
X0.964Y-8.6618
X1.0185Y-8.55
X1.073Y-8.6618
X1.1276Y-8.55
X1.1821Y-8.6618
X1.2366Y-8.55
X1.2911Y-8.6618
X1.3457Y-8.55
X1.4002Y-8.6618
X1.4547Y-8.55
X1.5093Y-8.6618
X1.5638Y-8.55
X1.6183Y-8.6618
X1.6728Y-8.55
X1.7274Y-8.6618
X1.7819Y-8.55
X1.8364Y-8.6618
X1.8909Y-8.55
X1.9455Y-8.6618
X2.0Y-8.55
X3.0413Y-8.55
X3.0959Y-8.6618
X3.1504Y-8.55
X3.2049Y-8.6618
X3.2594Y-8.55
X3.314Y-8.6618
X3.3685Y-8.55
X3.423Y-8.6618
X3.4776Y-8.55
X3.5321Y-8.6618
X3.5866Y-8.55
X3.6411Y-8.6618
X3.6957Y-8.55
X3.7502Y-8.6618
X3.8047Y-8.55
X3.8593Y-8.6618
X3.9138Y-8.55
X3.9683Y-8.6618
X4.0228Y-8.55
X4.0774Y-8.6618
X4.1319Y-8.55
X4.1864Y-8.6618
X4.2409Y-8.55
X4.2955Y-8.6618
X4.35Y-8.55
X0.7Y-4.575
X0.7545Y-4.4632
X0.8091Y-4.575
X0.8636Y-4.4632
X0.9181Y-4.575
X0.9726Y-4.4632
X1.0272Y-4.575
X1.0817Y-4.4632
X1.1362Y-4.575
X1.1907Y-4.4632
X1.2453Y-4.575
X1.2998Y-4.4632
X1.3543Y-4.575
X1.4089Y-4.4632
X1.4634Y-4.575
X6.35Y-5.25
X6.45Y-5.25
X6.55Y-5.25
X6.35Y-5.1
X6.45Y-5.1
X6.55Y-5.1
X5.3913Y-8.55
X5.4459Y-8.6618
X5.5004Y-8.55
X5.5549Y-8.6618
X5.6094Y-8.55
X5.664Y-8.6618
X5.7185Y-8.55
X5.773Y-8.6618
X5.8276Y-8.55
X5.8821Y-8.6618
X5.9366Y-8.55
X5.9911Y-8.6618
X6.0457Y-8.55
X6.1002Y-8.6618
X6.1547Y-8.55
X6.2093Y-8.6618
X6.2638Y-8.55
X6.3183Y-8.6618
X6.3728Y-8.55
X6.4274Y-8.6618
X6.4819Y-8.55
X6.5364Y-8.6618
X6.5909Y-8.55
X6.6455Y-8.6618
X6.7Y-8.55
X2.35Y-4.575
X2.4045Y-4.4632
X2.4591Y-4.575
X2.5136Y-4.4632
X2.5681Y-4.575
X2.6226Y-4.4632
X2.6772Y-4.575
X2.7317Y-4.4632
X2.7862Y-4.575
X2.8407Y-4.4632
X2.8953Y-4.575
X2.9498Y-4.4632
X3.0043Y-4.575
X3.0589Y-4.4632
X3.1134Y-4.575
X1.8Y-4.975
X1.9Y-4.975
X2.0Y-4.975
T7
X6.25Y-4.55
X6.25Y-4.65
X6.35Y-4.55
X6.35Y-4.65
X6.45Y-4.55
X6.45Y-4.65
X6.55Y-4.55
X6.55Y-4.65
X6.65Y-4.55
X6.65Y-4.65
X6.75Y-4.55
X6.75Y-4.65
X6.85Y-4.55
X6.85Y-4.65
X6.95Y-4.55
X6.95Y-4.65
X7.05Y-4.55
X7.05Y-4.65
X7.15Y-4.55
X7.15Y-4.65
X7.25Y-4.55
X7.25Y-4.65
X7.35Y-4.55
X7.35Y-4.65
X7.45Y-4.55
X7.45Y-4.65
T8
X9.3Y-6.05
X9.7Y-6.05
X8.7Y-6.05
X9.1Y-6.05
X8.7Y-6.85
X9.1Y-6.85
T9
X11.055Y-7.99
X11.055Y-8.19
X9.18Y-8.56
X9.38Y-8.56
X9.58Y-8.56
X9.395Y-4.54
X9.595Y-4.54
X8.81Y-4.54
X9.01Y-4.54
X8.22Y-8.56
X8.42Y-8.56
X8.62Y-8.56
X11.055Y-7.43
X11.055Y-7.63
X11.055Y-8.55
X11.055Y-8.75
T10
X8.75Y-7.05
X8.75Y-7.6406
X8.75Y-7.8374
X8.75Y-8.0343
X9.0453Y-7.05
X9.0453Y-7.6406
X9.0453Y-7.8374
X9.0453Y-8.0343
X8.7547Y-4.8657
X8.7547Y-5.0626
X8.7547Y-5.2594
X8.7547Y-5.85
X9.05Y-4.8657
X9.05Y-5.0626
X9.05Y-5.2594
X9.05Y-5.85
X9.3547Y-4.8657
X9.3547Y-5.0626
X9.3547Y-5.2594
X9.3547Y-5.85
X9.65Y-4.8657
X9.65Y-5.0626
X9.65Y-5.2594
X9.65Y-5.85
T11
X5.3201Y-4.4549
X5.9299Y-4.4549
X3.6701Y-4.4549
X4.2799Y-4.4549
X4.4951Y-4.4549
X5.1049Y-4.4549
X7.7701Y-4.4549
X8.3799Y-4.4549
T12
X10.6835Y-4.55
X10.6835Y-4.7154
X10.6835Y-4.8807
X10.6835Y-5.0461
X10.6835Y-5.2114
X10.6835Y-5.3768
X10.6835Y-5.5421
X10.6835Y-5.7075
X10.6835Y-5.8728
X10.6835Y-6.0382
X10.6835Y-6.2035
X10.6835Y-6.3689
X10.9Y-4.55
X10.9Y-4.7154
X10.9Y-4.8807
X10.9Y-5.0461
X10.9Y-5.2114
X10.9Y-5.3768
X10.9Y-5.5421
X10.9Y-5.7075
X10.9Y-5.8728
X10.9Y-6.0382
X10.9Y-6.2035
X10.9Y-6.3689
T13
X11.0081Y-6.811
X11.1361Y-7.0
T14
X0.4185Y-8.6059
X2.2728Y-8.6059
X2.7685Y-8.6059
X4.6228Y-8.6059
X0.4262Y-4.5191
X1.7372Y-4.5191
X5.1185Y-8.6059
X6.9728Y-8.6059
X2.0762Y-4.5191
X3.3872Y-4.5191
T15
X10.89Y-7.0
T16
X11.1874Y-4.55
X11.1874Y-6.3689
T17
X-0.3Y-4.5
X-0.345Y-5.72
X-0.345Y-6.12
X7.45Y-8.7
X-0.345Y-7.0
X-0.345Y-7.4
X-0.345Y-5.09
X-0.345Y-5.49
X-0.345Y-7.63
X-0.345Y-8.03
X-0.3Y-8.7
X10.4Y-6.75
X-0.345Y-6.36
X-0.345Y-6.76
X7.45Y-5.05
X10.1Y-4.6
T18
X3.75Y-4.575
X4.2Y-4.575
X7.85Y-4.575
X8.3Y-4.575
X5.4Y-4.575
X5.85Y-4.575
X4.575Y-4.575
X5.025Y-4.575
T0
M30
