G04 #@! TF.GenerationSoftware,KiCad,Pcbnew,5.1.5-52549c5~86~ubuntu18.04.1*
G04 #@! TF.CreationDate,2020-04-28T19:14:53+01:00*
G04 #@! TF.ProjectId,UnifiedBreakout,556e6966-6965-4644-9272-65616b6f7574,rev?*
G04 #@! TF.SameCoordinates,Original*
G04 #@! TF.FileFunction,Soldermask,Top*
G04 #@! TF.FilePolarity,Negative*
%FSLAX46Y46*%
G04 Gerber Fmt 4.6, Leading zero omitted, Abs format (unit mm)*
G04 Created by KiCad (PCBNEW 5.1.5-52549c5~86~ubuntu18.04.1) date 2020-04-28 19:14:53*
%MOMM*%
%LPD*%
G04 APERTURE LIST*
%ADD10R,1.600000X1.600000*%
%ADD11C,1.600000*%
%ADD12C,4.000000*%
%ADD13C,2.355000*%
%ADD14C,1.446000*%
%ADD15O,1.600000X1.600000*%
%ADD16C,3.200000*%
%ADD17O,1.727200X1.727200*%
%ADD18R,1.727200X1.727200*%
%ADD19C,4.575000*%
%ADD20C,5.340000*%
%ADD21C,1.400000*%
%ADD22O,2.080000X3.600000*%
%ADD23C,0.100000*%
%ADD24C,3.000000*%
%ADD25O,3.700000X2.700000*%
%ADD26O,2.400000X1.600000*%
%ADD27R,2.400000X1.600000*%
%ADD28O,2.500000X2.500000*%
%ADD29R,2.500000X2.500000*%
%ADD30R,1.500000X1.500000*%
%ADD31C,1.500000*%
%ADD32O,1.700000X1.700000*%
%ADD33R,1.700000X1.700000*%
%ADD34O,3.600000X2.080000*%
%ADD35O,2.200000X2.200000*%
%ADD36R,2.200000X2.200000*%
%ADD37C,1.800000*%
%ADD38R,1.800000X1.800000*%
G04 APERTURE END LIST*
D10*
X59690000Y-116205000D03*
D11*
X62460000Y-116205000D03*
X65230000Y-116205000D03*
X68000000Y-116205000D03*
X70770000Y-116205000D03*
X73540000Y-116205000D03*
X76310000Y-116205000D03*
X79080000Y-116205000D03*
X61075000Y-113365000D03*
X63845000Y-113365000D03*
X66615000Y-113365000D03*
X69385000Y-113365000D03*
X72155000Y-113365000D03*
X74925000Y-113365000D03*
X77695000Y-113365000D03*
D12*
X86035000Y-114785000D03*
X52735000Y-114785000D03*
D10*
X17780000Y-116205000D03*
D11*
X20550000Y-116205000D03*
X23320000Y-116205000D03*
X26090000Y-116205000D03*
X28860000Y-116205000D03*
X31630000Y-116205000D03*
X34400000Y-116205000D03*
X37170000Y-116205000D03*
X19165000Y-113365000D03*
X21935000Y-113365000D03*
X24705000Y-113365000D03*
X27475000Y-113365000D03*
X30245000Y-113365000D03*
X33015000Y-113365000D03*
X35785000Y-113365000D03*
D12*
X44125000Y-114785000D03*
X10825000Y-114785000D03*
D13*
X212850000Y-113155000D03*
X197360000Y-113155000D03*
D14*
X200660000Y-125095000D03*
X201930000Y-122555000D03*
X203200000Y-125095000D03*
X204470000Y-122555000D03*
X205740000Y-125095000D03*
X207010000Y-122555000D03*
X208280000Y-125095000D03*
X209550000Y-122555000D03*
D15*
X15113000Y-139446000D03*
D11*
X7493000Y-139446000D03*
D15*
X14986000Y-171450000D03*
D11*
X7366000Y-171450000D03*
D15*
X15113000Y-188214000D03*
D11*
X7493000Y-188214000D03*
D15*
X14986000Y-155194000D03*
D11*
X7366000Y-155194000D03*
D15*
X23114000Y-178054000D03*
D11*
X23114000Y-185674000D03*
D15*
X22860000Y-193548000D03*
D11*
X22860000Y-201168000D03*
D15*
X22860000Y-161290000D03*
D11*
X22860000Y-168910000D03*
D15*
X22860000Y-145034000D03*
D11*
X22860000Y-152654000D03*
D15*
X22860000Y-129286000D03*
D11*
X22860000Y-136906000D03*
D15*
X191770000Y-168910000D03*
D11*
X191770000Y-176530000D03*
D15*
X196850000Y-168910000D03*
D11*
X196850000Y-176530000D03*
D15*
X184150000Y-176530000D03*
D11*
X176530000Y-176530000D03*
D15*
X19558000Y-185674000D03*
D11*
X19558000Y-178054000D03*
D15*
X19304000Y-201168000D03*
D11*
X19304000Y-193548000D03*
D15*
X14986000Y-203708000D03*
D11*
X7366000Y-203708000D03*
D15*
X19304000Y-168910000D03*
D11*
X19304000Y-161290000D03*
D15*
X19304000Y-152654000D03*
D11*
X19304000Y-145034000D03*
D15*
X19304000Y-136906000D03*
D11*
X19304000Y-129286000D03*
D15*
X223520000Y-165100000D03*
D11*
X231140000Y-165100000D03*
D15*
X204470000Y-158750000D03*
D11*
X212090000Y-158750000D03*
D15*
X251460000Y-147320000D03*
D11*
X251460000Y-154940000D03*
D15*
X204470000Y-162560000D03*
D11*
X212090000Y-162560000D03*
D15*
X240030000Y-180340000D03*
D11*
X247650000Y-180340000D03*
D15*
X204470000Y-173990000D03*
D11*
X212090000Y-173990000D03*
D15*
X205740000Y-147320000D03*
D11*
X198120000Y-147320000D03*
D15*
X212090000Y-144780000D03*
D11*
X212090000Y-137160000D03*
D15*
X261620000Y-143510000D03*
D11*
X261620000Y-135890000D03*
D15*
X265430000Y-138430000D03*
D11*
X265430000Y-146050000D03*
D15*
X123190000Y-209550000D03*
D11*
X123190000Y-217170000D03*
D15*
X64135000Y-219710000D03*
D11*
X64135000Y-212090000D03*
D15*
X265430000Y-125730000D03*
D11*
X265430000Y-133350000D03*
X72310000Y-212090000D03*
X67310000Y-212090000D03*
X260350000Y-203280000D03*
X260350000Y-208280000D03*
X260350000Y-188040000D03*
X260350000Y-193040000D03*
X260350000Y-217250000D03*
X260350000Y-222250000D03*
D16*
X264160000Y-171450000D03*
X189230000Y-128270000D03*
D12*
X177110000Y-218590000D03*
X130010000Y-218590000D03*
D11*
X138325000Y-220010000D03*
X141095000Y-220010000D03*
X143865000Y-220010000D03*
X146635000Y-220010000D03*
X149405000Y-220010000D03*
X152175000Y-220010000D03*
X154945000Y-220010000D03*
X157715000Y-220010000D03*
X160485000Y-220010000D03*
X163255000Y-220010000D03*
X166025000Y-220010000D03*
X168795000Y-220010000D03*
X136940000Y-217170000D03*
X139710000Y-217170000D03*
X142480000Y-217170000D03*
X145250000Y-217170000D03*
X148020000Y-217170000D03*
X150790000Y-217170000D03*
X153560000Y-217170000D03*
X156330000Y-217170000D03*
X159100000Y-217170000D03*
X161870000Y-217170000D03*
X164640000Y-217170000D03*
X167410000Y-217170000D03*
D10*
X170180000Y-217170000D03*
D12*
X117420000Y-218590000D03*
X70320000Y-218590000D03*
D11*
X78635000Y-220010000D03*
X81405000Y-220010000D03*
X84175000Y-220010000D03*
X86945000Y-220010000D03*
X89715000Y-220010000D03*
X92485000Y-220010000D03*
X95255000Y-220010000D03*
X98025000Y-220010000D03*
X100795000Y-220010000D03*
X103565000Y-220010000D03*
X106335000Y-220010000D03*
X109105000Y-220010000D03*
X77250000Y-217170000D03*
X80020000Y-217170000D03*
X82790000Y-217170000D03*
X85560000Y-217170000D03*
X88330000Y-217170000D03*
X91100000Y-217170000D03*
X93870000Y-217170000D03*
X96640000Y-217170000D03*
X99410000Y-217170000D03*
X102180000Y-217170000D03*
X104950000Y-217170000D03*
X107720000Y-217170000D03*
D10*
X110490000Y-217170000D03*
D17*
X189230000Y-115570000D03*
X189230000Y-118110000D03*
X186690000Y-115570000D03*
X186690000Y-118110000D03*
X184150000Y-115570000D03*
X184150000Y-118110000D03*
X181610000Y-115570000D03*
X181610000Y-118110000D03*
X179070000Y-115570000D03*
X179070000Y-118110000D03*
X176530000Y-115570000D03*
X176530000Y-118110000D03*
X173990000Y-115570000D03*
X173990000Y-118110000D03*
X171450000Y-115570000D03*
X171450000Y-118110000D03*
X168910000Y-115570000D03*
X168910000Y-118110000D03*
X166370000Y-115570000D03*
X166370000Y-118110000D03*
X163830000Y-115570000D03*
X163830000Y-118110000D03*
X161290000Y-115570000D03*
X161290000Y-118110000D03*
X158750000Y-115570000D03*
D18*
X158750000Y-118110000D03*
D11*
X67000000Y-204470000D03*
D10*
X63500000Y-204470000D03*
D11*
X267970000Y-204780000D03*
D10*
X267970000Y-208280000D03*
D11*
X267970000Y-190175000D03*
D10*
X267970000Y-193675000D03*
D11*
X267970000Y-218750000D03*
D10*
X267970000Y-222250000D03*
D19*
X282856000Y-177800000D03*
X279606000Y-173000000D03*
D20*
X276606000Y-177800000D03*
D21*
X127000Y-184785000D03*
X-2413000Y-183515000D03*
X127000Y-182245000D03*
X-2413000Y-180975000D03*
X127000Y-200787000D03*
X-2413000Y-199517000D03*
X127000Y-198247000D03*
X-2413000Y-196977000D03*
X127000Y-168529000D03*
X-2413000Y-167259000D03*
X127000Y-165989000D03*
X-2413000Y-164719000D03*
X127000Y-152273000D03*
X-2413000Y-151003000D03*
X127000Y-149733000D03*
X-2413000Y-148463000D03*
X127000Y-136271000D03*
X-2413000Y-135001000D03*
X127000Y-133731000D03*
X-2413000Y-132461000D03*
D14*
X105410000Y-122555000D03*
X104140000Y-125095000D03*
X102870000Y-122555000D03*
X101600000Y-125095000D03*
X100330000Y-122555000D03*
X99060000Y-125095000D03*
X97790000Y-122555000D03*
X96520000Y-125095000D03*
D13*
X93220000Y-113155000D03*
X108710000Y-113155000D03*
D14*
X126365000Y-122555000D03*
X125095000Y-125095000D03*
X123825000Y-122555000D03*
X122555000Y-125095000D03*
X121285000Y-122555000D03*
X120015000Y-125095000D03*
X118745000Y-122555000D03*
X117475000Y-125095000D03*
D13*
X114175000Y-113155000D03*
X129665000Y-113155000D03*
D14*
X147320000Y-122555000D03*
X146050000Y-125095000D03*
X144780000Y-122555000D03*
X143510000Y-125095000D03*
X142240000Y-122555000D03*
X140970000Y-125095000D03*
X139700000Y-122555000D03*
X138430000Y-125095000D03*
D13*
X135130000Y-113155000D03*
X150620000Y-113155000D03*
D16*
X189230000Y-220980000D03*
X256540000Y-116840000D03*
X-7620000Y-220980000D03*
X-7620000Y-114300000D03*
D22*
X218948000Y-217424000D03*
X213868000Y-217424000D03*
D23*
G36*
X209602505Y-215625204D02*
G01*
X209626773Y-215628804D01*
X209650572Y-215634765D01*
X209673671Y-215643030D01*
X209695850Y-215653520D01*
X209716893Y-215666132D01*
X209736599Y-215680747D01*
X209754777Y-215697223D01*
X209771253Y-215715401D01*
X209785868Y-215735107D01*
X209798480Y-215756150D01*
X209808970Y-215778329D01*
X209817235Y-215801428D01*
X209823196Y-215825227D01*
X209826796Y-215849495D01*
X209828000Y-215873999D01*
X209828000Y-218974001D01*
X209826796Y-218998505D01*
X209823196Y-219022773D01*
X209817235Y-219046572D01*
X209808970Y-219069671D01*
X209798480Y-219091850D01*
X209785868Y-219112893D01*
X209771253Y-219132599D01*
X209754777Y-219150777D01*
X209736599Y-219167253D01*
X209716893Y-219181868D01*
X209695850Y-219194480D01*
X209673671Y-219204970D01*
X209650572Y-219213235D01*
X209626773Y-219219196D01*
X209602505Y-219222796D01*
X209578001Y-219224000D01*
X207997999Y-219224000D01*
X207973495Y-219222796D01*
X207949227Y-219219196D01*
X207925428Y-219213235D01*
X207902329Y-219204970D01*
X207880150Y-219194480D01*
X207859107Y-219181868D01*
X207839401Y-219167253D01*
X207821223Y-219150777D01*
X207804747Y-219132599D01*
X207790132Y-219112893D01*
X207777520Y-219091850D01*
X207767030Y-219069671D01*
X207758765Y-219046572D01*
X207752804Y-219022773D01*
X207749204Y-218998505D01*
X207748000Y-218974001D01*
X207748000Y-215873999D01*
X207749204Y-215849495D01*
X207752804Y-215825227D01*
X207758765Y-215801428D01*
X207767030Y-215778329D01*
X207777520Y-215756150D01*
X207790132Y-215735107D01*
X207804747Y-215715401D01*
X207821223Y-215697223D01*
X207839401Y-215680747D01*
X207859107Y-215666132D01*
X207880150Y-215653520D01*
X207902329Y-215643030D01*
X207925428Y-215634765D01*
X207949227Y-215628804D01*
X207973495Y-215625204D01*
X207997999Y-215624000D01*
X209578001Y-215624000D01*
X209602505Y-215625204D01*
G37*
D22*
X243332000Y-217424000D03*
X238252000Y-217424000D03*
D23*
G36*
X233986505Y-215625204D02*
G01*
X234010773Y-215628804D01*
X234034572Y-215634765D01*
X234057671Y-215643030D01*
X234079850Y-215653520D01*
X234100893Y-215666132D01*
X234120599Y-215680747D01*
X234138777Y-215697223D01*
X234155253Y-215715401D01*
X234169868Y-215735107D01*
X234182480Y-215756150D01*
X234192970Y-215778329D01*
X234201235Y-215801428D01*
X234207196Y-215825227D01*
X234210796Y-215849495D01*
X234212000Y-215873999D01*
X234212000Y-218974001D01*
X234210796Y-218998505D01*
X234207196Y-219022773D01*
X234201235Y-219046572D01*
X234192970Y-219069671D01*
X234182480Y-219091850D01*
X234169868Y-219112893D01*
X234155253Y-219132599D01*
X234138777Y-219150777D01*
X234120599Y-219167253D01*
X234100893Y-219181868D01*
X234079850Y-219194480D01*
X234057671Y-219204970D01*
X234034572Y-219213235D01*
X234010773Y-219219196D01*
X233986505Y-219222796D01*
X233962001Y-219224000D01*
X232381999Y-219224000D01*
X232357495Y-219222796D01*
X232333227Y-219219196D01*
X232309428Y-219213235D01*
X232286329Y-219204970D01*
X232264150Y-219194480D01*
X232243107Y-219181868D01*
X232223401Y-219167253D01*
X232205223Y-219150777D01*
X232188747Y-219132599D01*
X232174132Y-219112893D01*
X232161520Y-219091850D01*
X232151030Y-219069671D01*
X232142765Y-219046572D01*
X232136804Y-219022773D01*
X232133204Y-218998505D01*
X232132000Y-218974001D01*
X232132000Y-215873999D01*
X232133204Y-215849495D01*
X232136804Y-215825227D01*
X232142765Y-215801428D01*
X232151030Y-215778329D01*
X232161520Y-215756150D01*
X232174132Y-215735107D01*
X232188747Y-215715401D01*
X232205223Y-215697223D01*
X232223401Y-215680747D01*
X232243107Y-215666132D01*
X232264150Y-215653520D01*
X232286329Y-215643030D01*
X232309428Y-215634765D01*
X232333227Y-215628804D01*
X232357495Y-215625204D01*
X232381999Y-215624000D01*
X233962001Y-215624000D01*
X233986505Y-215625204D01*
G37*
D22*
X223774000Y-115316000D03*
D23*
G36*
X229668505Y-113517204D02*
G01*
X229692773Y-113520804D01*
X229716572Y-113526765D01*
X229739671Y-113535030D01*
X229761850Y-113545520D01*
X229782893Y-113558132D01*
X229802599Y-113572747D01*
X229820777Y-113589223D01*
X229837253Y-113607401D01*
X229851868Y-113627107D01*
X229864480Y-113648150D01*
X229874970Y-113670329D01*
X229883235Y-113693428D01*
X229889196Y-113717227D01*
X229892796Y-113741495D01*
X229894000Y-113765999D01*
X229894000Y-116866001D01*
X229892796Y-116890505D01*
X229889196Y-116914773D01*
X229883235Y-116938572D01*
X229874970Y-116961671D01*
X229864480Y-116983850D01*
X229851868Y-117004893D01*
X229837253Y-117024599D01*
X229820777Y-117042777D01*
X229802599Y-117059253D01*
X229782893Y-117073868D01*
X229761850Y-117086480D01*
X229739671Y-117096970D01*
X229716572Y-117105235D01*
X229692773Y-117111196D01*
X229668505Y-117114796D01*
X229644001Y-117116000D01*
X228063999Y-117116000D01*
X228039495Y-117114796D01*
X228015227Y-117111196D01*
X227991428Y-117105235D01*
X227968329Y-117096970D01*
X227946150Y-117086480D01*
X227925107Y-117073868D01*
X227905401Y-117059253D01*
X227887223Y-117042777D01*
X227870747Y-117024599D01*
X227856132Y-117004893D01*
X227843520Y-116983850D01*
X227833030Y-116961671D01*
X227824765Y-116938572D01*
X227818804Y-116914773D01*
X227815204Y-116890505D01*
X227814000Y-116866001D01*
X227814000Y-113765999D01*
X227815204Y-113741495D01*
X227818804Y-113717227D01*
X227824765Y-113693428D01*
X227833030Y-113670329D01*
X227843520Y-113648150D01*
X227856132Y-113627107D01*
X227870747Y-113607401D01*
X227887223Y-113589223D01*
X227905401Y-113572747D01*
X227925107Y-113558132D01*
X227946150Y-113545520D01*
X227968329Y-113535030D01*
X227991428Y-113526765D01*
X228015227Y-113520804D01*
X228039495Y-113517204D01*
X228063999Y-113516000D01*
X229644001Y-113516000D01*
X229668505Y-113517204D01*
G37*
D22*
X238633000Y-115316000D03*
D23*
G36*
X244527505Y-113517204D02*
G01*
X244551773Y-113520804D01*
X244575572Y-113526765D01*
X244598671Y-113535030D01*
X244620850Y-113545520D01*
X244641893Y-113558132D01*
X244661599Y-113572747D01*
X244679777Y-113589223D01*
X244696253Y-113607401D01*
X244710868Y-113627107D01*
X244723480Y-113648150D01*
X244733970Y-113670329D01*
X244742235Y-113693428D01*
X244748196Y-113717227D01*
X244751796Y-113741495D01*
X244753000Y-113765999D01*
X244753000Y-116866001D01*
X244751796Y-116890505D01*
X244748196Y-116914773D01*
X244742235Y-116938572D01*
X244733970Y-116961671D01*
X244723480Y-116983850D01*
X244710868Y-117004893D01*
X244696253Y-117024599D01*
X244679777Y-117042777D01*
X244661599Y-117059253D01*
X244641893Y-117073868D01*
X244620850Y-117086480D01*
X244598671Y-117096970D01*
X244575572Y-117105235D01*
X244551773Y-117111196D01*
X244527505Y-117114796D01*
X244503001Y-117116000D01*
X242922999Y-117116000D01*
X242898495Y-117114796D01*
X242874227Y-117111196D01*
X242850428Y-117105235D01*
X242827329Y-117096970D01*
X242805150Y-117086480D01*
X242784107Y-117073868D01*
X242764401Y-117059253D01*
X242746223Y-117042777D01*
X242729747Y-117024599D01*
X242715132Y-117004893D01*
X242702520Y-116983850D01*
X242692030Y-116961671D01*
X242683765Y-116938572D01*
X242677804Y-116914773D01*
X242674204Y-116890505D01*
X242673000Y-116866001D01*
X242673000Y-113765999D01*
X242674204Y-113741495D01*
X242677804Y-113717227D01*
X242683765Y-113693428D01*
X242692030Y-113670329D01*
X242702520Y-113648150D01*
X242715132Y-113627107D01*
X242729747Y-113607401D01*
X242746223Y-113589223D01*
X242764401Y-113572747D01*
X242784107Y-113558132D01*
X242805150Y-113545520D01*
X242827329Y-113535030D01*
X242850428Y-113526765D01*
X242874227Y-113520804D01*
X242898495Y-113517204D01*
X242922999Y-113516000D01*
X244503001Y-113516000D01*
X244527505Y-113517204D01*
G37*
D24*
X284160000Y-161770000D03*
X284160000Y-115570000D03*
D25*
X271360000Y-161770000D03*
X271360000Y-157570000D03*
X271360000Y-153370000D03*
X271360000Y-149170000D03*
X271360000Y-144970000D03*
X271360000Y-140770000D03*
X271360000Y-136570000D03*
X271360000Y-132370000D03*
X271360000Y-128170000D03*
X271360000Y-123970000D03*
X271360000Y-119770000D03*
X271360000Y-115570000D03*
X276860000Y-161770000D03*
X276860000Y-157570000D03*
X276860000Y-153370000D03*
X276860000Y-149170000D03*
X276860000Y-144970000D03*
X276860000Y-140770000D03*
X276860000Y-136570000D03*
X276860000Y-132370000D03*
X276860000Y-128170000D03*
X276860000Y-123970000D03*
X276860000Y-119770000D03*
D23*
G36*
X278484503Y-114221204D02*
G01*
X278508772Y-114224804D01*
X278532570Y-114230765D01*
X278555670Y-114239030D01*
X278577849Y-114249520D01*
X278598892Y-114262133D01*
X278618598Y-114276748D01*
X278636776Y-114293224D01*
X278653252Y-114311402D01*
X278667867Y-114331108D01*
X278680480Y-114352151D01*
X278690970Y-114374330D01*
X278699235Y-114397430D01*
X278705196Y-114421228D01*
X278708796Y-114445497D01*
X278710000Y-114470001D01*
X278710000Y-116669999D01*
X278708796Y-116694503D01*
X278705196Y-116718772D01*
X278699235Y-116742570D01*
X278690970Y-116765670D01*
X278680480Y-116787849D01*
X278667867Y-116808892D01*
X278653252Y-116828598D01*
X278636776Y-116846776D01*
X278618598Y-116863252D01*
X278598892Y-116877867D01*
X278577849Y-116890480D01*
X278555670Y-116900970D01*
X278532570Y-116909235D01*
X278508772Y-116915196D01*
X278484503Y-116918796D01*
X278459999Y-116920000D01*
X275260001Y-116920000D01*
X275235497Y-116918796D01*
X275211228Y-116915196D01*
X275187430Y-116909235D01*
X275164330Y-116900970D01*
X275142151Y-116890480D01*
X275121108Y-116877867D01*
X275101402Y-116863252D01*
X275083224Y-116846776D01*
X275066748Y-116828598D01*
X275052133Y-116808892D01*
X275039520Y-116787849D01*
X275029030Y-116765670D01*
X275020765Y-116742570D01*
X275014804Y-116718772D01*
X275011204Y-116694503D01*
X275010000Y-116669999D01*
X275010000Y-114470001D01*
X275011204Y-114445497D01*
X275014804Y-114421228D01*
X275020765Y-114397430D01*
X275029030Y-114374330D01*
X275039520Y-114352151D01*
X275052133Y-114331108D01*
X275066748Y-114311402D01*
X275083224Y-114293224D01*
X275101402Y-114276748D01*
X275121108Y-114262133D01*
X275142151Y-114249520D01*
X275164330Y-114239030D01*
X275187430Y-114230765D01*
X275211228Y-114224804D01*
X275235497Y-114221204D01*
X275260001Y-114220000D01*
X278459999Y-114220000D01*
X278484503Y-114221204D01*
G37*
D26*
X177800000Y-171450000D03*
X185420000Y-156210000D03*
X177800000Y-168910000D03*
X185420000Y-158750000D03*
X177800000Y-166370000D03*
X185420000Y-161290000D03*
X177800000Y-163830000D03*
X185420000Y-163830000D03*
X177800000Y-161290000D03*
X185420000Y-166370000D03*
X177800000Y-158750000D03*
X185420000Y-168910000D03*
X177800000Y-156210000D03*
D27*
X185420000Y-171450000D03*
D15*
X15113000Y-178181000D03*
X7493000Y-183261000D03*
X15113000Y-180721000D03*
X7493000Y-180721000D03*
X15113000Y-183261000D03*
D10*
X7493000Y-178181000D03*
D15*
X14986000Y-193802000D03*
X7366000Y-198882000D03*
X14986000Y-196342000D03*
X7366000Y-196342000D03*
X14986000Y-198882000D03*
D10*
X7366000Y-193802000D03*
D15*
X14986000Y-161544000D03*
X7366000Y-166624000D03*
X14986000Y-164084000D03*
X7366000Y-164084000D03*
X14986000Y-166624000D03*
D10*
X7366000Y-161544000D03*
D15*
X14986000Y-145415000D03*
X7366000Y-150495000D03*
X14986000Y-147955000D03*
X7366000Y-147955000D03*
X14986000Y-150495000D03*
D10*
X7366000Y-145415000D03*
D15*
X15113000Y-129540000D03*
X7493000Y-134620000D03*
X15113000Y-132080000D03*
X7493000Y-132080000D03*
X15113000Y-134620000D03*
D10*
X7493000Y-129540000D03*
D15*
X207772000Y-136906000D03*
X200152000Y-141986000D03*
X207772000Y-139446000D03*
X200152000Y-139446000D03*
X207772000Y-141986000D03*
D10*
X200152000Y-136906000D03*
D28*
X222370000Y-148590000D03*
X222370000Y-133590000D03*
X222370000Y-128590000D03*
X222370000Y-123590000D03*
X229870000Y-123590000D03*
X229870000Y-128590000D03*
X229870000Y-133590000D03*
D29*
X229870000Y-148590000D03*
D28*
X237610000Y-148590000D03*
X237610000Y-133590000D03*
X237610000Y-128590000D03*
X237610000Y-123590000D03*
X245110000Y-123590000D03*
X245110000Y-128590000D03*
X245110000Y-133590000D03*
D29*
X245110000Y-148590000D03*
D28*
X229750000Y-179070000D03*
X229750000Y-194070000D03*
X229750000Y-199070000D03*
X229750000Y-204070000D03*
X222250000Y-204070000D03*
X222250000Y-199070000D03*
X222250000Y-194070000D03*
D29*
X222250000Y-179070000D03*
D30*
X220980000Y-160020000D03*
D31*
X226060000Y-160020000D03*
X223520000Y-160020000D03*
D30*
X236220000Y-160020000D03*
D31*
X241300000Y-160020000D03*
X238760000Y-160020000D03*
D30*
X234950000Y-175260000D03*
D31*
X240030000Y-175260000D03*
X237490000Y-175260000D03*
D32*
X161290000Y-133350000D03*
X163830000Y-133350000D03*
D33*
X166370000Y-133350000D03*
D32*
X161290000Y-129540000D03*
X163830000Y-129540000D03*
D33*
X166370000Y-129540000D03*
D32*
X50800000Y-126365000D03*
X48260000Y-126365000D03*
D33*
X45720000Y-126365000D03*
D12*
X57730000Y-218590000D03*
X10630000Y-218590000D03*
D11*
X18945000Y-220010000D03*
X21715000Y-220010000D03*
X24485000Y-220010000D03*
X27255000Y-220010000D03*
X30025000Y-220010000D03*
X32795000Y-220010000D03*
X35565000Y-220010000D03*
X38335000Y-220010000D03*
X41105000Y-220010000D03*
X43875000Y-220010000D03*
X46645000Y-220010000D03*
X49415000Y-220010000D03*
X17560000Y-217170000D03*
X20330000Y-217170000D03*
X23100000Y-217170000D03*
X25870000Y-217170000D03*
X28640000Y-217170000D03*
X31410000Y-217170000D03*
X34180000Y-217170000D03*
X36950000Y-217170000D03*
X39720000Y-217170000D03*
X42490000Y-217170000D03*
X45260000Y-217170000D03*
X48030000Y-217170000D03*
D10*
X50800000Y-217170000D03*
D34*
X280797000Y-202946000D03*
D23*
G36*
X282371505Y-206987204D02*
G01*
X282395773Y-206990804D01*
X282419572Y-206996765D01*
X282442671Y-207005030D01*
X282464850Y-207015520D01*
X282485893Y-207028132D01*
X282505599Y-207042747D01*
X282523777Y-207059223D01*
X282540253Y-207077401D01*
X282554868Y-207097107D01*
X282567480Y-207118150D01*
X282577970Y-207140329D01*
X282586235Y-207163428D01*
X282592196Y-207187227D01*
X282595796Y-207211495D01*
X282597000Y-207235999D01*
X282597000Y-208816001D01*
X282595796Y-208840505D01*
X282592196Y-208864773D01*
X282586235Y-208888572D01*
X282577970Y-208911671D01*
X282567480Y-208933850D01*
X282554868Y-208954893D01*
X282540253Y-208974599D01*
X282523777Y-208992777D01*
X282505599Y-209009253D01*
X282485893Y-209023868D01*
X282464850Y-209036480D01*
X282442671Y-209046970D01*
X282419572Y-209055235D01*
X282395773Y-209061196D01*
X282371505Y-209064796D01*
X282347001Y-209066000D01*
X279246999Y-209066000D01*
X279222495Y-209064796D01*
X279198227Y-209061196D01*
X279174428Y-209055235D01*
X279151329Y-209046970D01*
X279129150Y-209036480D01*
X279108107Y-209023868D01*
X279088401Y-209009253D01*
X279070223Y-208992777D01*
X279053747Y-208974599D01*
X279039132Y-208954893D01*
X279026520Y-208933850D01*
X279016030Y-208911671D01*
X279007765Y-208888572D01*
X279001804Y-208864773D01*
X278998204Y-208840505D01*
X278997000Y-208816001D01*
X278997000Y-207235999D01*
X278998204Y-207211495D01*
X279001804Y-207187227D01*
X279007765Y-207163428D01*
X279016030Y-207140329D01*
X279026520Y-207118150D01*
X279039132Y-207097107D01*
X279053747Y-207077401D01*
X279070223Y-207059223D01*
X279088401Y-207042747D01*
X279108107Y-207028132D01*
X279129150Y-207015520D01*
X279151329Y-207005030D01*
X279174428Y-206996765D01*
X279198227Y-206990804D01*
X279222495Y-206987204D01*
X279246999Y-206986000D01*
X282347001Y-206986000D01*
X282371505Y-206987204D01*
G37*
D34*
X280797000Y-188722000D03*
D23*
G36*
X282371505Y-192763204D02*
G01*
X282395773Y-192766804D01*
X282419572Y-192772765D01*
X282442671Y-192781030D01*
X282464850Y-192791520D01*
X282485893Y-192804132D01*
X282505599Y-192818747D01*
X282523777Y-192835223D01*
X282540253Y-192853401D01*
X282554868Y-192873107D01*
X282567480Y-192894150D01*
X282577970Y-192916329D01*
X282586235Y-192939428D01*
X282592196Y-192963227D01*
X282595796Y-192987495D01*
X282597000Y-193011999D01*
X282597000Y-194592001D01*
X282595796Y-194616505D01*
X282592196Y-194640773D01*
X282586235Y-194664572D01*
X282577970Y-194687671D01*
X282567480Y-194709850D01*
X282554868Y-194730893D01*
X282540253Y-194750599D01*
X282523777Y-194768777D01*
X282505599Y-194785253D01*
X282485893Y-194799868D01*
X282464850Y-194812480D01*
X282442671Y-194822970D01*
X282419572Y-194831235D01*
X282395773Y-194837196D01*
X282371505Y-194840796D01*
X282347001Y-194842000D01*
X279246999Y-194842000D01*
X279222495Y-194840796D01*
X279198227Y-194837196D01*
X279174428Y-194831235D01*
X279151329Y-194822970D01*
X279129150Y-194812480D01*
X279108107Y-194799868D01*
X279088401Y-194785253D01*
X279070223Y-194768777D01*
X279053747Y-194750599D01*
X279039132Y-194730893D01*
X279026520Y-194709850D01*
X279016030Y-194687671D01*
X279007765Y-194664572D01*
X279001804Y-194640773D01*
X278998204Y-194616505D01*
X278997000Y-194592001D01*
X278997000Y-193011999D01*
X278998204Y-192987495D01*
X279001804Y-192963227D01*
X279007765Y-192939428D01*
X279016030Y-192916329D01*
X279026520Y-192894150D01*
X279039132Y-192873107D01*
X279053747Y-192853401D01*
X279070223Y-192835223D01*
X279088401Y-192818747D01*
X279108107Y-192804132D01*
X279129150Y-192791520D01*
X279151329Y-192781030D01*
X279174428Y-192772765D01*
X279198227Y-192766804D01*
X279222495Y-192763204D01*
X279246999Y-192762000D01*
X282347001Y-192762000D01*
X282371505Y-192763204D01*
G37*
D34*
X280797000Y-217170000D03*
D23*
G36*
X282371505Y-221211204D02*
G01*
X282395773Y-221214804D01*
X282419572Y-221220765D01*
X282442671Y-221229030D01*
X282464850Y-221239520D01*
X282485893Y-221252132D01*
X282505599Y-221266747D01*
X282523777Y-221283223D01*
X282540253Y-221301401D01*
X282554868Y-221321107D01*
X282567480Y-221342150D01*
X282577970Y-221364329D01*
X282586235Y-221387428D01*
X282592196Y-221411227D01*
X282595796Y-221435495D01*
X282597000Y-221459999D01*
X282597000Y-223040001D01*
X282595796Y-223064505D01*
X282592196Y-223088773D01*
X282586235Y-223112572D01*
X282577970Y-223135671D01*
X282567480Y-223157850D01*
X282554868Y-223178893D01*
X282540253Y-223198599D01*
X282523777Y-223216777D01*
X282505599Y-223233253D01*
X282485893Y-223247868D01*
X282464850Y-223260480D01*
X282442671Y-223270970D01*
X282419572Y-223279235D01*
X282395773Y-223285196D01*
X282371505Y-223288796D01*
X282347001Y-223290000D01*
X279246999Y-223290000D01*
X279222495Y-223288796D01*
X279198227Y-223285196D01*
X279174428Y-223279235D01*
X279151329Y-223270970D01*
X279129150Y-223260480D01*
X279108107Y-223247868D01*
X279088401Y-223233253D01*
X279070223Y-223216777D01*
X279053747Y-223198599D01*
X279039132Y-223178893D01*
X279026520Y-223157850D01*
X279016030Y-223135671D01*
X279007765Y-223112572D01*
X279001804Y-223088773D01*
X278998204Y-223064505D01*
X278997000Y-223040001D01*
X278997000Y-221459999D01*
X278998204Y-221435495D01*
X279001804Y-221411227D01*
X279007765Y-221387428D01*
X279016030Y-221364329D01*
X279026520Y-221342150D01*
X279039132Y-221321107D01*
X279053747Y-221301401D01*
X279070223Y-221283223D01*
X279088401Y-221266747D01*
X279108107Y-221252132D01*
X279129150Y-221239520D01*
X279151329Y-221229030D01*
X279174428Y-221220765D01*
X279198227Y-221214804D01*
X279222495Y-221211204D01*
X279246999Y-221210000D01*
X282347001Y-221210000D01*
X282371505Y-221211204D01*
G37*
D35*
X220980000Y-153670000D03*
D36*
X231140000Y-153670000D03*
D37*
X229870000Y-160020000D03*
D38*
X232410000Y-160020000D03*
D35*
X236220000Y-153670000D03*
D36*
X246380000Y-153670000D03*
D37*
X245110000Y-160020000D03*
D38*
X247650000Y-160020000D03*
D35*
X231140000Y-173990000D03*
D36*
X220980000Y-173990000D03*
D37*
X246380000Y-176530000D03*
D38*
X248920000Y-176530000D03*
D37*
X264160000Y-153670000D03*
D38*
X266700000Y-153670000D03*
D37*
X264160000Y-161290000D03*
D38*
X266700000Y-161290000D03*
D37*
X119380000Y-206375000D03*
D38*
X116840000Y-206375000D03*
D37*
X60960000Y-210820000D03*
D38*
X58420000Y-210820000D03*
M02*
